<svg width="1920" height="628" viewBox="0 0 1920 628" fill="none" xmlns="http://www.w3.org/2000/svg">
<path d="M0 92.83C106.669 89.513 213.331 86.2038 320 64.2864C426.669 42.369 533.331 1.85908 640 0.0633452C746.669 -1.73239 853.331 35.1861 960 42.8787C1066.67 50.5714 1173.33 29.0304 1280 28.6069C1386.67 28.1835 1493.33 48.8776 1600 71.4223C1706.67 93.967 1813.33 118.378 1920 142.781V628.022C1813.33 628.022 1706.67 628.022 1600 628.022C1493.33 628.022 1386.67 628.022 1280 628.022C1173.33 628.022 1066.67 628.022 960 628.022C853.331 628.022 746.669 628.022 640 628.022C533.331 628.022 426.669 628.022 320 628.022C213.331 628.022 106.669 628.022 0 628.022V92.83Z" fill="white" fill-opacity="0.1"/>
<path d="M0 42.8782C106.669 46.3834 213.331 49.8887 320 78.5577C426.669 107.227 533.331 161.044 640 185.596C746.669 210.148 853.331 205.42 960 192.732C1066.67 180.044 1173.33 159.397 1280 121.373C1386.67 83.3489 1493.33 27.9321 1600 35.7423C1706.67 43.5526 1813.33 114.574 1920 185.596V628.022C1813.33 628.022 1706.67 628.022 1600 628.022C1493.33 628.022 1386.67 628.022 1280 628.022C1173.33 628.022 1066.67 628.022 960 628.022C853.331 628.022 746.669 628.022 640 628.022C533.331 628.022 426.669 628.022 320 628.022C213.331 628.022 106.669 628.022 0 628.022V42.8782Z" fill="white" fill-opacity="0.1"/>
<path d="M0 214.14C106.669 185.965 213.331 157.79 320 135.645C426.669 113.5 533.331 97.3857 640 107.101C746.669 116.817 853.331 152.371 960 185.596C1066.67 218.821 1173.33 249.71 1280 242.683C1386.67 235.657 1493.33 190.725 1600 171.324C1706.67 151.924 1813.33 158.056 1920 164.189V628.022C1813.33 628.022 1706.67 628.022 1600 628.022C1493.33 628.022 1386.67 628.022 1280 628.022C1173.33 628.022 1066.67 628.022 960 628.022C853.331 628.022 746.669 628.022 640 628.022C533.331 628.022 426.669 628.022 320 628.022C213.331 628.022 106.669 628.022 0 628.022V214.14Z" fill="white" fill-opacity="0.1"/>
<path d="M0 264.092C106.669 242.065 213.331 220.046 320 214.141C426.669 208.236 533.331 218.454 640 199.869C746.669 181.284 853.331 133.905 960 149.918C1066.67 165.931 1173.33 245.351 1280 256.956C1386.67 268.562 1493.33 212.361 1600 185.597C1706.67 158.834 1813.33 161.516 1920 164.19V628.023C1813.33 628.023 1706.67 628.023 1600 628.023C1493.33 628.023 1386.67 628.023 1280 628.023C1173.33 628.023 1066.67 628.023 960 628.023C853.331 628.023 746.669 628.023 640 628.023C533.331 628.023 426.669 628.023 320 628.023C213.331 628.023 106.669 628.023 0 628.023V264.092Z" fill="white" fill-opacity="0.1"/>
<path d="M0 242.684C106.669 286.213 213.331 329.75 320 321.179C426.669 312.608 533.331 251.937 640 242.684C746.669 233.431 853.331 275.587 960 271.228C1066.67 266.868 1173.33 215.983 1280 221.276C1386.67 226.569 1493.33 288.032 1600 292.635C1706.67 297.238 1813.33 244.989 1920 192.733V628.022C1813.33 628.022 1706.67 628.022 1600 628.022C1493.33 628.022 1386.67 628.022 1280 628.022C1173.33 628.022 1066.67 628.022 960 628.022C853.331 628.022 746.669 628.022 640 628.022C533.331 628.022 426.669 628.022 320 628.022C213.331 628.022 106.669 628.022 0 628.022V242.684Z" fill="white" fill-opacity="0.1"/>
<path d="M0 292.635C106.669 251.592 213.331 210.549 320 207.005C426.669 203.46 533.331 237.415 640 271.228C746.669 305.041 853.331 338.705 960 328.315C1066.67 317.925 1173.33 263.488 1280 264.092C1386.67 264.696 1493.33 320.332 1600 328.315C1706.67 336.298 1813.33 296.627 1920 256.956V628.022C1813.33 628.022 1706.67 628.022 1600 628.022C1493.33 628.022 1386.67 628.022 1280 628.022C1173.33 628.022 1066.67 628.022 960 628.022C853.331 628.022 746.669 628.022 640 628.022C533.331 628.022 426.669 628.022 320 628.022C213.331 628.022 106.669 628.022 0 628.022V292.635Z" fill="white" fill-opacity="0.1"/>
<path d="M0 306.906C106.669 291.576 213.331 276.245 320 285.498C426.669 294.752 533.331 328.588 640 321.178C746.669 313.768 853.331 265.118 960 271.227C1066.67 277.335 1173.33 338.194 1280 371.129C1386.67 404.064 1493.33 409.083 1600 399.673C1706.67 390.263 1813.33 366.424 1920 342.586V628.021C1813.33 628.021 1706.67 628.021 1600 628.021C1493.33 628.021 1386.67 628.021 1280 628.021C1173.33 628.021 1066.67 628.021 960 628.021C853.331 628.021 746.669 628.021 640 628.021C533.331 628.021 426.669 628.021 320 628.021C213.331 628.021 106.669 628.021 0 628.021V306.906Z" fill="white" fill-opacity="0.1"/>
<path d="M0 292.635C106.669 305.77 213.331 318.912 320 349.722C426.669 380.532 533.331 429.025 640 413.945C746.669 398.866 853.331 320.23 960 314.043C1066.67 307.856 1173.33 374.133 1280 406.809C1386.67 439.485 1493.33 438.576 1600 435.353C1706.67 432.13 1813.33 426.609 1920 421.081V628.022C1813.33 628.022 1706.67 628.022 1600 628.022C1493.33 628.022 1386.67 628.022 1280 628.022C1173.33 628.022 1066.67 628.022 960 628.022C853.331 628.022 746.669 628.022 640 628.022C533.331 628.022 426.669 628.022 320 628.022C213.331 628.022 106.669 628.022 0 628.022V292.635Z" fill="white" fill-opacity="0.1"/>
<path d="M0 499.577C106.669 508.791 213.331 518.005 320 499.577C426.669 481.149 533.331 435.087 640 428.218C746.669 421.348 853.331 453.672 960 456.761C1066.67 459.851 1173.33 433.715 1280 413.946C1386.67 394.177 1493.33 380.776 1600 392.538C1706.67 404.301 1813.33 441.235 1920 478.169V628.023C1813.33 628.023 1706.67 628.023 1600 628.023C1493.33 628.023 1386.67 628.023 1280 628.023C1173.33 628.023 1066.67 628.023 960 628.023C853.331 628.023 746.669 628.023 640 628.023C533.331 628.023 426.669 628.023 320 628.023C213.331 628.023 106.669 628.023 0 628.023V499.577Z" fill="white" fill-opacity="0.1"/>
<path d="M0 406.81C106.669 412.864 213.331 418.909 320 435.353C426.669 451.797 533.331 478.631 640 492.441C746.669 506.25 853.331 507.026 960 513.848C1066.67 520.67 1173.33 533.523 1280 542.392C1386.67 551.261 1493.33 556.138 1600 535.256C1706.67 514.374 1813.33 467.724 1920 421.082V628.023C1813.33 628.023 1706.67 628.023 1600 628.023C1493.33 628.023 1386.67 628.023 1280 628.023C1173.33 628.023 1066.67 628.023 960 628.023C853.331 628.023 746.669 628.023 640 628.023C533.331 628.023 426.669 628.023 320 628.023C213.331 628.023 106.669 628.023 0 628.023V406.81Z" fill="white" fill-opacity="0.1"/>
</svg>
